<svg width="48" height="48" xmlns="http://www.w3.org/2000/svg">

 <g>
  <title>Layer 1</title>
  <path fill="#ffffff" id="svg_1" d="m4.3,43.7l0,-31.35l12.35,0l0,-3.4l7.35,-7.25l7.4,7.25l0,11.7l12.35,0l0,23.05l-39.45,0zm4.7,-4.7l5.3,0l0,-5.3l-5.3,0l0,5.3zm0,-8.3l5.3,0l0,-5.3l-5.3,0l0,5.3zm0,-8.3l5.3,0l0,-5.3l-5.3,0l0,5.3zm12.35,16.6l5.3,0l0,-5.3l-5.3,0l0,5.3zm0,-8.3l5.3,0l0,-5.3l-5.3,0l0,5.3zm0,-8.3l5.3,0l0,-5.3l-5.3,0l0,5.3zm0,-8.3l5.3,0l0,-5.3l-5.3,0l0,5.3zm12.35,24.9l5.3,0l0,-5.3l-5.3,0l0,5.3zm0,-8.3l5.3,0l0,-5.3l-5.3,0l0,5.3z"/>
 </g>
</svg>