<svg width="48" height="48" xmlns="http://www.w3.org/2000/svg">

 <g>
  <title>Layer 1</title>
  <path fill="#ffffff" id="svg_1" d="m10.1,39.05l0,1.55q0,1.15 -0.8,1.9t-1.95,0.75l0.15,0q-1.15,0 -1.95,-0.8t-0.8,-1.95l0,-16.45l4.3,-12.95q0.35,-1.1 1.275,-1.75q0.925,-0.65 2.075,-0.65l23.2,0q1.15,0 2.075,0.65q0.925,0.65 1.275,1.75l4.35,12.95l0,16.45q0,1.15 -0.85,1.95t-1.95,0.8l0.1,0q-1.15,0 -1.925,-0.75q-0.775,-0.75 -0.775,-1.9l0,-1.55l-27.8,0zm0.6,-17.75l26.65,0l-2.6,-7.85l-21.5,0l-2.55,7.85zm-1.25,3l0,10.05l0,-10.05zm5.1,7.75q1.1,0 1.9,-0.8q0.8,-0.8 0.8,-1.9q0,-1.15 -0.8,-1.975q-0.8,-0.825 -1.9,-0.825q-1.2,0 -2,0.825t-0.8,1.975q0,1.15 0.8,1.925q0.8,0.775 2,0.775zm19,0q1.15,0 1.975,-0.8q0.825,-0.8 0.825,-1.9q0,-1.15 -0.825,-1.975q-0.825,-0.825 -1.975,-0.825q-1.15,0 -1.925,0.825q-0.775,0.825 -0.775,1.975q0,1.15 0.8,1.925q0.8,0.775 1.9,0.775zm-24.1,2.3l29.1,0l0,-10.05l-29.1,0l0,10.05z"/>
 </g>
</svg>